<?xml version="1.0" encoding="UTF-8"?>
<svg version="1.1" xmlns="http://www.w3.org/2000/svg" width="600" height="600">
<path d="M0 0 C198 0 396 0 600 0 C600 198 600 396 600 600 C402 600 204 600 0 600 C0 402 0 204 0 0 Z " fill="#020202" transform="translate(0,0)"/>
<path d="M0 0 C7.79157611 -0.22921156 15.58227573 -0.38622561 23.37646484 -0.49438477 C26.02458177 -0.53949556 28.6724764 -0.60080278 31.31982422 -0.67895508 C35.13825416 -0.78881213 38.95370932 -0.83932187 42.7734375 -0.87890625 C44.53341568 -0.9485836 44.53341568 -0.9485836 46.32894897 -1.01966858 C53.02272151 -1.02372986 56.58929384 -0.13372472 61.64379883 4.40112305 C63.11391932 5.91677727 64.56873072 7.447605 66 9 C67.75558209 10.47665783 69.52287711 11.93978688 71.3125 13.375 C75.4197353 16.70018062 79.47483827 20.07662633 83.5 23.5 C87.46891888 26.87296937 91.46017431 30.21176978 95.5 33.5 C100.1045358 37.24787798 104.64019191 41.06983444 109.1640625 44.9140625 C112.5805954 47.81244823 116.02504838 50.671551 119.5 53.5 C123.53983543 56.78823814 127.53080427 60.12734761 131.5 63.5 C136.2691121 67.55012599 141.07912432 71.54352113 145.9296875 75.49609375 C155.50861889 83.30791948 165.05229952 91.15972837 174.46826172 99.16748047 C178.65553147 102.72370172 182.90323386 106.20057887 187.1640625 109.66796875 C190.97670669 112.80315963 194.74073564 115.99413759 198.49804688 119.1953125 C201.62548732 121.85579509 204.79164323 124.43331458 208 127 C208.495 64.135 208.495 64.135 209 0 C229.8725 -0.061875 250.745 -0.12375 272.25 -0.1875 C282.07894043 -0.22846802 282.07894043 -0.22846802 292.10644531 -0.27026367 C300.20458984 -0.28381348 300.20458984 -0.28381348 304.01434326 -0.28633118 C306.6344805 -0.29089131 309.25415915 -0.30017623 311.87420654 -0.31672668 C343.87902615 -0.50961951 375.3897228 1.76506372 399.38671875 25.35546875 C400.24910156 26.22816406 401.11148437 27.10085937 402 28 C402.99966797 28.98419922 402.99966797 28.98419922 404.01953125 29.98828125 C419.95569568 46.78780447 425.56057258 71.03085986 425.35131836 93.54833984 C424.66633482 118.27934851 416.11443296 139.82155221 398 157 C389.94154066 164.01316898 380.58486152 168.47815818 371 173 C372.12535156 173.43699219 372.12535156 173.43699219 373.2734375 173.8828125 C393.4207532 181.95188856 409.20870122 194.99561915 420 214 C420.52335937 214.91136719 421.04671875 215.82273437 421.5859375 216.76171875 C433.79461893 239.47482404 435.86630627 268.20835722 428.68457031 292.85351562 C424.98070013 304.46707719 419.45058137 314.37795774 412 324 C411.37480469 324.80953125 410.74960937 325.6190625 410.10546875 326.453125 C393.60214278 346.32660386 368.15579428 355.85740878 343.12895203 358.72647476 C332.60270511 359.6466532 321.98688492 359.36947292 311.4289856 359.30384064 C308.16865049 359.28645117 304.908325 359.28593508 301.64794922 359.28381348 C292.18192455 359.2682194 282.71595785 359.22633623 273.25 359.1875 C252.0475 359.125625 230.845 359.06375 209 359 C208.67 314.12 208.34 269.24 208 223 C204.37 226.3 200.74 229.6 197 233 C194.3402389 235.15313994 191.68034344 237.30612329 189.015625 239.453125 C184.70750681 243.09158751 180.64326563 246.97252861 176.54785156 250.84667969 C172.96944728 254.21426889 169.34453344 257.4335269 165.5 260.5 C159.51161505 265.27996646 154.00315587 270.53219357 148.4296875 275.78125 C144.23191078 279.73316017 139.91709495 283.52345773 135.52246094 287.25439453 C127.82207553 293.79404337 120.27591084 300.45091217 112.87890625 307.33203125 C108.3086082 311.5674635 103.60835337 315.63526191 98.859375 319.66796875 C92.3436528 325.21071785 85.95580102 330.84324227 79.70898438 336.68774414 C75.34080154 340.74824209 70.80409122 344.5328934 66.14453125 348.2578125 C63.95973997 349.97161512 63.95973997 349.97161512 62 352 C59.59555054 352.24050903 59.59555054 352.24050903 56.54052734 352.22705078 C55.39949554 352.22689972 54.25846375 352.22674866 53.08285522 352.22659302 C51.22813095 352.21110916 51.22813095 352.21110916 49.3359375 352.1953125 C48.07359283 352.1924826 46.81124817 352.18965271 45.51065063 352.18673706 C42.15353056 352.17742131 38.79668088 352.15944835 35.43963623 352.1373291 C32.01446878 352.1168755 28.58927341 352.1077364 25.1640625 352.09765625 C18.44263329 352.07556458 11.72133227 352.04206377 5 352 C10.41897753 345.43135726 10.41897753 345.43135726 13.6875 342.6875 C16.78076647 340.0518516 19.81078158 337.36466364 22.8125 334.625 C26.23229328 331.53363199 29.71958524 328.57540968 33.3125 325.6875 C38.76871405 321.274613 43.88615451 316.55528972 49.015625 311.7734375 C53.62148226 307.48018201 58.3810007 303.37670578 63.17578125 299.296875 C64.36745686 298.28156606 65.5588541 297.26593033 66.75 296.25 C67.35360352 295.73526123 67.95720703 295.22052246 68.57910156 294.69018555 C72.52465831 291.30910646 76.38110932 287.84905793 80.1875 284.3125 C83.81283208 280.94416553 87.51232393 277.7207798 91.375 274.625 C96.41416406 270.57333783 101.10465771 266.22645384 105.80810547 261.79736328 C109.27061478 258.55451548 112.79286848 255.46570521 116.5 252.5 C122.19631705 247.93958074 127.47319066 242.98265337 132.79296875 237.99609375 C137.4639332 233.61883286 142.29747541 229.4485711 147.171875 225.30078125 C148.36486315 224.28418244 149.55756205 223.26724412 150.75 222.25 C151.65552612 221.477771 151.65552612 221.477771 152.5793457 220.68994141 C156.52485283 217.3089801 160.38119366 213.84897957 164.1875 210.3125 C167.81283208 206.94416553 171.51232393 203.7207798 175.375 200.625 C180.40404884 196.58147081 185.09228323 192.24954975 189.77734375 187.81933594 C194.34706905 183.52571931 199.10000872 179.61238527 204.0859375 175.8046875 C204.71757812 175.20914063 205.34921875 174.61359375 206 174 C206 173.01 206 172.02 206 171 C204.21898111 169.22936057 204.21898111 169.22936057 201.8125 167.5 C197.61029633 164.26662122 193.52722153 160.94562396 189.5 157.5 C184.92680134 153.6038447 180.28835048 149.81222595 175.578125 146.08203125 C172.59032832 143.66915908 169.66943803 141.18203921 166.75 138.6875 C162.2936082 134.88255834 157.75828313 131.21201588 153.125 127.625 C147.35246529 123.15015437 141.82240828 118.44176257 136.32910156 113.62988281 C132.14405186 109.96987855 127.87712474 106.45092987 123.5078125 103.01171875 C120.53759684 100.62906911 117.64399151 98.16142373 114.75 95.6875 C110.29370607 91.88244997 105.75827696 88.2120111 101.125 84.625 C95.35246529 80.15015437 89.82240828 75.44176257 84.32910156 70.62988281 C80.14405186 66.96987855 75.87712474 63.45092987 71.5078125 60.01171875 C68.53759684 57.62906911 65.64399151 55.16142373 62.75 52.6875 C58.29370843 48.88245198 53.75830579 45.21197043 49.125 41.625 C43.443157 37.221176 38.01126077 32.58301398 32.61035156 27.84082031 C27.91604652 23.74029983 23.08502426 19.86315715 18.15966797 16.04541016 C13.90804136 12.74021145 9.74331473 9.34490404 5.625 5.875 C5.05894043 5.4011084 4.49288086 4.9272168 3.90966797 4.43896484 C2.58612202 3.31616983 1.28987716 2.16131798 0 1 C0 0.67 0 0.34 0 0 Z " fill="#FCFCFC" transform="translate(84,80)"/>
<path d="M0 0 C106.29934924 0 106.29934924 0 125.9921875 17.80078125 C137.59570089 29.84264959 141.5929785 46.51464321 141.4375 62.75 C141.42847656 63.88743652 141.41945313 65.02487305 141.41015625 66.19677734 C141.00851749 85.82408267 134.2857183 103.41488011 121 118 C120.20142578 118.97066406 120.20142578 118.97066406 119.38671875 119.9609375 C110.41464193 130.06741484 96.73597216 136.60637856 85 143 C87.66031635 145.09778084 90.24644143 146.72119165 93.30859375 148.1640625 C94.13174072 148.55907959 94.9548877 148.95409668 95.80297852 149.36108398 C96.67237061 149.77817627 97.5417627 150.19526855 98.4375 150.625 C119.84353112 161.16148784 136.27857275 175.26414137 145 198 C145.39445313 199.01578125 145.78890625 200.0315625 146.1953125 201.078125 C151.47520408 217.25010061 151.23587849 237.81637557 146 254 C145.73316406 254.87914062 145.46632813 255.75828125 145.19140625 256.6640625 C139.89971012 271.85711006 127.88870194 283.13177492 113.80371094 290.16308594 C80.7497594 305.49997628 27.07822443 297 0 297 C0 198.99 0 100.98 0 0 Z " fill="#000000" transform="translate(334,111)"/>
<path d="M0 0 C1.65 0 3.3 0 5 0 C7.10396411 5.93317878 8.75971762 11.82777121 10 18 C11.96061053 14.56256596 12.73800563 11.16733494 13.5625 7.3125 C14.89518414 1.10481586 14.89518414 1.10481586 16 0 C17.99958364 -0.04080783 20.00045254 -0.04254356 22 0 C22.64779076 2.39531933 23.29329009 4.79121748 23.9375 7.1875 C24.11990234 7.86103516 24.30230469 8.53457031 24.49023438 9.22851562 C25.4488358 12.80148458 26.32883282 16.36156738 27 20 C27.26554687 18.80761719 27.53109375 17.61523438 27.8046875 16.38671875 C28.16113217 14.82023825 28.51792097 13.25383602 28.875 11.6875 C29.04902344 10.90181641 29.22304688 10.11613281 29.40234375 9.30664062 C29.66337891 8.1706543 29.66337891 8.1706543 29.9296875 7.01171875 C30.08679199 6.31522217 30.24389648 5.61872559 30.40576172 4.90112305 C31 3 31 3 33 0 C35.625 -0.1875 35.625 -0.1875 38 0 C37.33325817 6.44011997 36.03214411 12.58883161 34.5 18.875 C34.27441406 19.82375 34.04882812 20.7725 33.81640625 21.75 C32.13699777 28.72600446 32.13699777 28.72600446 31 31 C28.36 31 25.72 31 23 31 C21.68 26.05 20.36 21.1 19 16 C18.67 16 18.34 16 18 16 C17.79503906 16.99902344 17.59007812 17.99804688 17.37890625 19.02734375 C17.10949219 20.31769531 16.84007812 21.60804688 16.5625 22.9375 C16.29566406 24.22527344 16.02882813 25.51304687 15.75390625 26.83984375 C15 30 15 30 14 31 C11.66702567 31.04092937 9.33294775 31.04241723 7 31 C4.28922104 25.2276354 2.70294309 19.4486507 1.25 13.25 C1.01667969 12.30511719 0.78335937 11.36023438 0.54296875 10.38671875 C0.32769531 9.48050781 0.11242187 8.57429688 -0.109375 7.640625 C-0.30499023 6.82110352 -0.50060547 6.00158203 -0.70214844 5.15722656 C-1 3 -1 3 0 0 Z " fill="#EDEDED" transform="translate(401,498)"/>
<path d="M0 0 C0.95390625 -0.01417969 1.9078125 -0.02835937 2.890625 -0.04296875 C5.93966952 0.20278757 8.03947307 0.78082999 10.75 2.1875 C13.06332486 5.65748729 13.08957563 7.11259248 12.75 11.1875 C11.76 12.6725 11.76 12.6725 10.75 14.1875 C11.224375 14.55875 11.69875 14.93 12.1875 15.3125 C14.3661345 17.9268614 14.61489008 19.80975193 14.75 23.1875 C12.98094306 27.41358046 10.80202058 29.18431799 6.75 31.1875 C3.671875 31.515625 3.671875 31.515625 0.5 31.4375 C-0.55703125 31.42203125 -1.6140625 31.4065625 -2.703125 31.390625 C-5.25 31.1875 -5.25 31.1875 -6.25 30.1875 C-6.35003289 28.05396826 -6.38081048 25.91712458 -6.3828125 23.78125 C-6.38410156 22.48058594 -6.38539063 21.17992187 -6.38671875 19.83984375 C-6.38462402 19.15905762 -6.3825293 18.47827148 -6.38037109 17.77685547 C-6.3750224 15.69621485 -6.3803168 13.61579011 -6.38671875 11.53515625 C-6.38542969 10.23449219 -6.38414062 8.93382812 -6.3828125 7.59375 C-6.38168457 6.39041016 -6.38055664 5.18707031 -6.37939453 3.94726562 C-6.15793682 -0.77605132 -4.24615737 0.0283834 0 0 Z " fill="#F2F2F2" transform="translate(321.25,497.8125)"/>
<path d="M0 0 C1.134375 0.020625 2.26875 0.04125 3.4375 0.0625 C4.72698279 3.83187464 6.008477 7.60386157 7.28271484 11.37841797 C7.7170637 12.66138279 8.15356654 13.94362052 8.59228516 15.22509766 C9.22347355 17.06999978 9.84621559 18.91778477 10.46875 20.765625 C10.84580078 21.87583008 11.22285156 22.98603516 11.61132812 24.12988281 C12.4375 27.0625 12.4375 27.0625 12.4375 31.0625 C10.4575 31.0625 8.4775 31.0625 6.4375 31.0625 C5.7775 28.7525 5.1175 26.4425 4.4375 24.0625 C-0.5125 24.5575 -0.5125 24.5575 -5.5625 25.0625 C-6.2225 27.0425 -6.8825 29.0225 -7.5625 31.0625 C-9.5425 31.0625 -11.5225 31.0625 -13.5625 31.0625 C-12.16484839 24.20768608 -10.24585958 17.68431279 -8 11.0625 C-7.52530273 9.63357422 -7.52530273 9.63357422 -7.04101562 8.17578125 C-4.31983338 0.07578655 -4.31983338 0.07578655 0 0 Z " fill="#EFEFEF" transform="translate(461.5625,497.9375)"/>
<path d="M0 0 C1.134375 0.020625 2.26875 0.04125 3.4375 0.0625 C5.87947122 5.5037692 7.82651891 11.00341162 9.625 16.6875 C10.03395508 17.93660156 10.03395508 17.93660156 10.45117188 19.2109375 C11.73460558 23.25101954 12.83200742 26.76675253 12.4375 31.0625 C10.4575 31.0625 8.4775 31.0625 6.4375 31.0625 C5.7775 29.0825 5.1175 27.1025 4.4375 25.0625 C1.1375 24.7325 -2.1625 24.4025 -5.5625 24.0625 C-6.2225 26.3725 -6.8825 28.6825 -7.5625 31.0625 C-9.5425 31.0625 -11.5225 31.0625 -13.5625 31.0625 C-11.91412882 23.68820788 -9.82219133 16.54047717 -7.4375 9.375 C-7.17179199 8.57271973 -6.90608398 7.77043945 -6.63232422 6.94384766 C-4.31534355 0.07570778 -4.31534355 0.07570778 0 0 Z " fill="#F0F0F0" transform="translate(239.5625,497.9375)"/>
<path d="M0 0 C1.65 0 3.3 0 5 0 C6 1 6 1 6.09765625 3.50390625 C6.08605469 4.51324219 6.07445312 5.52257812 6.0625 6.5625 C6.05347656 7.57441406 6.04445312 8.58632813 6.03515625 9.62890625 C6.02355469 10.41136719 6.01195312 11.19382812 6 12 C9.3 12 12.6 12 16 12 C16 8.04 16 4.08 16 0 C17.65 0 19.3 0 21 0 C22 1 22 1 22.11352539 3.86743164 C22.10828857 5.11903076 22.10305176 6.37062988 22.09765625 7.66015625 C22.0962413 8.32462265 22.09482635 8.98908905 22.09336853 9.6736908 C22.08775518 11.80333899 22.07520054 13.93288339 22.0625 16.0625 C22.05748671 17.50325369 22.05292351 18.94400903 22.04882812 20.38476562 C22.03778145 23.92321102 22.02050792 27.46159539 22 31 C20.02 31 18.04 31 16 31 C16 26.71 16 22.42 16 18 C12.7 18 9.4 18 6 18 C6 22.29 6 26.58 6 31 C4.02 31 2.04 31 0 31 C0 20.77 0 10.54 0 0 Z " fill="#F5F5F5" transform="translate(191,498)"/>
<path d="M0 0 C1.66611905 -0.042721 3.33382885 -0.04063832 5 0 C6.64225717 1.64225717 6.18619583 3.57763842 6.24609375 5.83984375 C6.27896484 6.82017578 6.31183594 7.80050781 6.34570312 8.81054688 C6.4067832 10.89116828 6.46408969 12.97190397 6.51757812 15.05273438 C6.55173828 16.03435547 6.58589844 17.01597656 6.62109375 18.02734375 C6.6461499 18.93218506 6.67120605 19.83702637 6.69702148 20.76928711 C6.7981385 23.20180987 6.7981385 23.20180987 9 25 C11.5 25.41666667 11.5 25.41666667 14 25 C16.15749784 21.76375324 16.28360488 20.65605934 16.4140625 16.89453125 C16.45273438 15.91162109 16.49140625 14.92871094 16.53125 13.91601562 C16.5621875 12.89185547 16.593125 11.86769531 16.625 10.8125 C16.66367188 9.77673828 16.70234375 8.74097656 16.7421875 7.67382812 C16.83648296 5.11606378 16.92208202 2.55830713 17 0 C18.66611905 -0.042721 20.33382885 -0.04063832 22 0 C24.46576563 2.46576563 23.23398821 8.93956186 23.25 12.25 C23.270625 13.30058594 23.29125 14.35117187 23.3125 15.43359375 C23.31765625 16.45066406 23.3228125 17.46773437 23.328125 18.515625 C23.34214355 19.91216309 23.34214355 19.91216309 23.35644531 21.33691406 C22.92940947 24.5273983 21.85851786 26.39563145 20 29 C15.78735804 31.89017016 10.91186119 31.66763162 6 31 C3.06576805 29.20353146 1.52794645 28.0558929 0 25 C-0.084915 23.1136088 -0.107193 21.22421485 -0.09765625 19.3359375 C-0.09443359 18.21445312 -0.09121094 17.09296875 -0.08789062 15.9375 C-0.07951172 14.761875 -0.07113281 13.58625 -0.0625 12.375 C-0.05798828 11.19164062 -0.05347656 10.00828125 -0.04882812 8.7890625 C-0.03701467 5.85932493 -0.02054258 2.92968728 0 0 Z " fill="#F4F4F4" transform="translate(121,498)"/>
<path d="M0 0 C1.65 0 3.3 0 5 0 C5.33 3.63 5.66 7.26 6 11 C6.51949219 10.2059375 7.03898437 9.411875 7.57421875 8.59375 C8.27160156 7.5728125 8.96898438 6.551875 9.6875 5.5 C10.37199219 4.4790625 11.05648437 3.458125 11.76171875 2.40625 C14 0 14 0 16.76953125 -0.34375 C17.50558594 -0.2303125 18.24164063 -0.116875 19 0 C18.75043161 3.99309424 17.30574265 5.97854916 14.8125 8.9375 C12.30065881 12.03063373 12.30065881 12.03063373 12.25 15.9375 C14.2376866 19.41595155 16.41309366 22.7013905 18.7578125 25.94921875 C20 28 20 28 20 31 C17.375 31.5625 17.375 31.5625 14 31 C11.58238547 28.24187638 9.81954767 25.17324729 8 22 C7.34 21.01 6.68 20.02 6 19 C5.67 22.96 5.34 26.92 5 31 C3.02 31 1.04 31 -1 31 C-1.02465622 26.74585377 -1.04283899 22.49174502 -1.05493164 18.23754883 C-1.05997101 16.78929927 -1.06680253 15.34105483 -1.07543945 13.89282227 C-1.08752247 11.81525412 -1.09323211 9.73775303 -1.09765625 7.66015625 C-1.10289307 6.40855713 -1.10812988 5.15695801 -1.11352539 3.86743164 C-1 1 -1 1 0 0 Z " fill="#F3F3F3" transform="translate(88,498)"/>
<path d="M0 0 C0.99 0.66 1.98 1.32 3 2 C3.1875 4.625 3.1875 4.625 3 7 C0.03 6.67 -2.94 6.34 -6 6 C-6.04510361 8.37897003 -6.04510361 8.37897003 -5 11 C-3.26350184 12.02903594 -1.52150377 13.0532388 0.2734375 13.9765625 C2.9140274 15.54179905 3.9183633 17.16070366 5 20 C5 23.85799249 4.2203149 25.67308112 2.0625 28.875 C-2.17461725 31.81504054 -5.97112546 31.80973404 -11 31 C-11.99 30.34 -12.98 29.68 -14 29 C-14.1875 26.375 -14.1875 26.375 -14 24 C-13.30132812 24.0721875 -12.60265625 24.144375 -11.8828125 24.21875 C-10.51769531 24.35796875 -10.51769531 24.35796875 -9.125 24.5 C-7.76761719 24.63921875 -7.76761719 24.63921875 -6.3828125 24.78125 C-4.06686789 25.03047295 -4.06686789 25.03047295 -2 25 C-2 23.35 -2 21.7 -2 20 C-2.721875 19.731875 -3.44375 19.46375 -4.1875 19.1875 C-10.95486936 16.33016627 -10.95486936 16.33016627 -13.375 13.25 C-14.32835544 9.81792041 -13.91654656 7.42177384 -13 4 C-9.08561275 -0.62609403 -5.68349539 -0.55001568 0 0 Z " fill="#F1F1F1" transform="translate(500,498)"/>
<path d="M0 0 C0.99 0.66 1.98 1.32 3 2 C3.1875 4.625 3.1875 4.625 3 7 C0.03 6.67 -2.94 6.34 -6 6 C-6 7.32 -6 8.64 -6 10 C-4.35067187 11.43629349 -4.35067187 11.43629349 -2.1875 12.5 C3.69346447 15.95141709 3.69346447 15.95141709 5 19 C5 23.60987649 4.88137746 25.86273876 2.0625 29.5 C-2.23809814 31.60641542 -6.28488308 31.68728823 -11 31 C-11.99 30.34 -12.98 29.68 -14 29 C-14.1875 26.375 -14.1875 26.375 -14 24 C-13.30132812 24.0721875 -12.60265625 24.144375 -11.8828125 24.21875 C-10.51769531 24.35796875 -10.51769531 24.35796875 -9.125 24.5 C-7.76761719 24.63921875 -7.76761719 24.63921875 -6.3828125 24.78125 C-4.06686789 25.03047295 -4.06686789 25.03047295 -2 25 C-1.87786106 22.65851769 -1.87786106 22.65851769 -3 20 C-4.94355321 18.49641598 -6.94441399 17.30864774 -9.08984375 16.11328125 C-11 15 -11 15 -13 13 C-13.560977 9.94119909 -13.51693193 7.06350187 -13 4 C-9.30240656 -0.73754159 -5.58465516 -0.5404505 0 0 Z " fill="#F3F3F3" transform="translate(172,498)"/>
<path d="M0 0 C0.99 0.66 1.98 1.32 3 2 C3.1875 4.625 3.1875 4.625 3 7 C0.03 6.67 -2.94 6.34 -6 6 C-6 7.32 -6 8.64 -6 10 C-4.35067187 11.43629349 -4.35067187 11.43629349 -2.1875 12.5 C3.69346447 15.95141709 3.69346447 15.95141709 5 19 C5 23.60987649 4.88137746 25.86273876 2.0625 29.5 C-2.23809814 31.60641542 -6.28488308 31.68728823 -11 31 C-11.99 30.34 -12.98 29.68 -14 29 C-14.1875 26.375 -14.1875 26.375 -14 24 C-13.30132812 24.0721875 -12.60265625 24.144375 -11.8828125 24.21875 C-10.51769531 24.35796875 -10.51769531 24.35796875 -9.125 24.5 C-7.76761719 24.63921875 -7.76761719 24.63921875 -6.3828125 24.78125 C-4.06686789 25.03047295 -4.06686789 25.03047295 -2 25 C-1.87786106 22.65851769 -1.87786106 22.65851769 -3 20 C-4.94355321 18.49641598 -6.94441399 17.30864774 -9.08984375 16.11328125 C-11 15 -11 15 -13 13 C-13.560977 9.94119909 -13.51693193 7.06350187 -13 4 C-9.30240656 -0.73754159 -5.58465516 -0.5404505 0 0 Z " fill="#F4F4F4" transform="translate(384,498)"/>
<path d="M0 0 C1.65 0 3.3 0 5 0 C6 1 6 1 6.11352539 3.31665039 C6.10828857 4.31688232 6.10305176 5.31711426 6.09765625 6.34765625 C6.09282227 7.96704102 6.09282227 7.96704102 6.08789062 9.61914062 C6.07951172 10.75544922 6.07113281 11.89175781 6.0625 13.0625 C6.05798828 14.20267578 6.05347656 15.34285156 6.04882812 16.51757812 C6.03699747 19.34510351 6.0205141 22.1725264 6 25 C8.97 25 11.94 25 15 25 C15.38218767 26.65614657 15.71395102 28.32457024 16 30 C15.67 30.33 15.34 30.66 15 31 C10.05 31 5.1 31 0 31 C0 20.77 0 10.54 0 0 Z " fill="#F2F2F2" transform="translate(266,498)"/>
<path d="M0 0 C1.65 0 3.3 0 5 0 C6 1 6 1 6.11352539 3.86743164 C6.10828857 5.11903076 6.10305176 6.37062988 6.09765625 7.66015625 C6.0962413 8.32462265 6.09482635 8.98908905 6.09336853 9.6736908 C6.08775518 11.80333899 6.07520054 13.93288339 6.0625 16.0625 C6.05748671 17.50325369 6.05292351 18.94400903 6.04882812 20.38476562 C6.03778145 23.92321102 6.02050792 27.46159539 6 31 C4.02 31 2.04 31 0 31 C0 20.77 0 10.54 0 0 Z " fill="#F5F5F5" transform="translate(350,498)"/>
<path d="M0 0 C2.33294775 -0.04241723 4.66702567 -0.04092937 7 0 C8 1 8 1 8.1875 3.4375 C8 6 8 6 6 8 C2.875 8.125 2.875 8.125 0 8 C0 5.36 0 2.72 0 0 Z " fill="#0D0D0D" transform="translate(321,516)"/>
<path d="M0 0 C2.97 0.495 2.97 0.495 6 1 C6.625 3.375 6.625 3.375 7 6 C5 8 5 8 2.375 8.125 C1.59125 8.08375 0.8075 8.0425 0 8 C0 5.36 0 2.72 0 0 Z " fill="#121212" transform="translate(321,503)"/>
<path d="M0 0 C1.96301592 3.50538557 2.95902388 7.13351728 4 11 C1.69 11 -0.62 11 -3 11 C-2.69217504 9.35328588 -2.37860766 7.70764424 -2.0625 6.0625 C-1.88847656 5.14597656 -1.71445313 4.22945313 -1.53515625 3.28515625 C-1 1 -1 1 0 0 Z " fill="#090909" transform="translate(239,506)"/>
<path d="M0 0 C3.51716303 3.51716303 3.54676163 5.19567333 4 10 C1.69 10 -0.62 10 -3 10 C-2.01 6.7 -1.02 3.4 0 0 Z " fill="#030303" transform="translate(460,507)"/>
</svg>
